<?xml version="1.0" encoding="UTF-8" standalone="no"?>
<!-- Created with Inkscape (http://www.inkscape.org/) -->

<svg
   width="100%"
   height="100%"
   version="1.1"
   viewBox="40 0 210 130"
   xml:space="preserve"
   id="svg4"
   sodipodi:docname="al-logo.svg"
   inkscape:version="1.3.2 (091e20e, 2023-11-25, custom)"
   xmlns:inkscape="http://www.inkscape.org/namespaces/inkscape"
   xmlns:sodipodi="http://sodipodi.sourceforge.net/DTD/sodipodi-0.dtd"
   xmlns="http://www.w3.org/2000/svg"
   xmlns:svg="http://www.w3.org/2000/svg"><sodipodi:namedview
     id="namedview4"
     pagecolor="#ffffff"
     bordercolor="#000000"
     borderopacity="0.25"
     inkscape:showpageshadow="2"
     inkscape:pageopacity="0.0"
     inkscape:pagecheckerboard="0"
     inkscape:deskcolor="#d1d1d1"
     inkscape:document-units="mm"
     inkscape:zoom="0.70110129"
     inkscape:cx="396.51902"
     inkscape:cy="561.25984"
     inkscape:window-width="1920"
     inkscape:window-height="1001"
     inkscape:window-x="-9"
     inkscape:window-y="-9"
     inkscape:window-maximized="1"
     inkscape:current-layer="svg4" /><defs
     id="defs2"><clipPath
       id="clipPath2"><rect
         x="153.22"
         y="25.285"
         width="36.606"
         height="28.304"
         id="rect1" /></clipPath><clipPath
       id="clipPath4"><rect
         x="103.4"
         y="130.57"
         width="20.379"
         height="28.304"
         id="rect2" /></clipPath><clipPath
       id="clipPath63"><path
         d="m15.919 1.7896v136.63h194.27v-136.63h-18.403l13.236 1.4723-2.049 14.373-26.973-2.8396 1.4976-13.005zm155.32 45.984c0.39749-0.05012 0.76061 0.23143 0.81081 0.6289 0.40343 3.1908 0.93823 6.1495 1.5105 8.9519l2.9414 11.69c1.4653 4.7865 2.667 7.6595 2.667 7.6595 0.15619 0.36945-0.0169 0.79521-0.38654 0.95085-0.36891 0.15489-0.79365-0.01794-0.94929-0.38654 0 0-5.1342-12.165-7.2228-28.684-0.0501-0.39748 0.23143-0.7606 0.6289-0.8108zm-54.502 39.836 1.0744 3.2153-0.36742 0.47026c0.17922-0.0011 0.35292 0.0648 0.48679 0.18397 1.2035 2.6648 3.5409 3.6954 3.5409 3.6954l0.0548 0.02532 1.0196 0.66611c0.33593 0.21974 0.42937 0.67026 0.20877 1.0056-0.21973 0.33593-0.67026 0.42938-1.0056 0.20877l-0.94878-0.6227c-0.24323-0.11487-2.6995-1.3239-4.0907-4.2209l-1.7653 2.2676-0.24443-0.45475-1.4118 1.9978-0.18397-2.6582-0.0155-0.20877 1.8986-3.5429 0.45528 0.12661zm16.677 10.025c0.18451-0.02122 0.3774 0.02833 0.53434 0.15296 0 0 2.0671 1.6345 5.3371 1.8996l0.0259 0.02016c0.39981 0.03259 0.69724 0.38314 0.66404 0.7829-0.0326 0.39899-0.38232 0.69666-0.78135 0.66456-0.29279-0.0237-0.52052-0.1087-0.79685-0.1509-0.0987 0.1035-0.22536 0.17573-0.36483 0.20723-3.8721 0.73411-8.8439-0.95912-8.8439-0.95912-0.38064-0.12422-0.58891-0.53289-0.46509-0.91364 0.12422-0.38062 0.5334-0.58891 0.91416-0.46509 0 0 2.3954 0.70958 4.9237 0.95291-0.8811-0.45726-1.5136-0.90227-1.5136-0.90227-0.3146-0.24854-0.36768-0.7052-0.11886-1.0196 0.12457-0.15699 0.30073-0.24854 0.48524-0.26975z"
         id="path2" /></clipPath></defs><g
     clip-path="url(#clipPath63)"
     fill="#fff"
     stroke="#fdfdfd"
     stroke-linecap="round"
     stroke-width="2.4"
     id="g4"><path
       d="m135.25 54.946c-36.229-46.418-73.212-6.4155-74.722 5.2834s-11.699 53.211 22.643 61.136c34.342 7.925 39.625-4.1512 51.324-18.492 11.699-14.341-0.37738-0.37738-0.37738-0.37738s-12.076-0.75476-17.36-7.925c-5.2834-7.1703 0-0.37738 0-0.37738s-12.076 16.227-27.926 6.4155c-15.85-9.8119-7.925-31.323-4.5286-36.229 3.3964-4.906 21.133-8.6798 30.568-3.7738 9.4346 4.906 3.3964 8.6798-6.0381 4.1512-9.4346-4.5286-18.869 1.1322-21.133 5.6607-2.2643 4.5286-4.5286 22.643 7.1703 29.058 11.699 6.4155 20.756-10.567 21.133-17.737 0.37739-7.1703 0-0.37738 0-0.37738s12.454 5.6607 14.718-1.1321c2.2643-6.7929-0.37738 0-0.37738 0s-4.906 19.247 12.831 18.492c17.737-0.75476 18.869-10.567 20.756-14.341 1.8869-3.7738-0.37739-0.37738-0.37739-0.37738l1.8869 11.699s12.076-10.189 16.605-10.567"
       id="path3" /><path
       d="m180.77 84.534s16.227 3.3964 20.001 1.5095c0 0-15.095-37.361-15.095-69.438v0.37738l-15.85-1.5095s-1.1322 20.001 1.5095 23.775c2.6417 3.7738-0.75477-0.75476-0.75477-0.75476s-32.455 7.5476-35.097 17.36c-2.6417 9.8119 0-0.37738 0-0.37738"
       id="path4" /></g></svg>
